<svg width="46" height="46" viewBox="0 0 46 46" fill="none" xmlns="http://www.w3.org/2000/svg">
<rect width="46" height="46" rx="8" fill="#050505"/>
<g clip-path="url(#clip0_559_3951)">
<path d="M36.9546 26.4136L31.7642 21.2558L32.8569 19.4618C33.6516 18.1661 33.4529 16.4718 32.385 15.4003L25.9281 8.99668C25.2575 8.37375 24.3883 8 23.4695 8H15.5473C14.6284 8 13.784 8.47342 13.2873 9.24585L10.3569 13.9551H26.5986C27.8403 13.9551 28.5853 15.3256 27.9397 16.3721L22.5257 25.0681H29.4049H31.2675C32.5092 25.0681 33.2542 26.4385 32.6085 27.485L29.8022 32.0448H14.7774C13.5357 32.0448 12.7906 30.6744 13.4363 29.6279L18.8254 20.9319H13.6102C12.592 20.9319 11.6234 21.4551 11.0771 22.3522L8.46946 26.588C7.67476 27.8588 7.87343 29.5282 8.94131 30.5747L15.7211 37.3023C16.193 37.7757 16.8387 38.0249 17.5092 38.0249H26.1267H31.938C32.5837 38.0249 33.2046 37.6761 33.5522 37.1279L37.4761 30.7741C38.3204 29.3538 38.1218 27.5598 36.9546 26.4136Z" fill="#C7FF00"/>
</g>
<defs>
<clipPath id="clip0_559_3951">
<rect width="30" height="30" fill="white" transform="translate(8 8)"/>
</clipPath>
</defs>
</svg>
